<svg xmlns="http://www.w3.org/2000/svg" xmlns:xlink="http://www.w3.org/1999/xlink" viewBox="0 0 1016.32 1691.47"><defs><style>.cls-1,.cls-27{fill:none;}.cls-2,.cls-41,.cls-42{isolation:isolate;}.cls-3,.cls-41{fill:#6110f5;}.cls-4{fill:#f2f2f2;}.cls-14,.cls-35,.cls-4{opacity:0.5;}.cls-10,.cls-14,.cls-20,.cls-21,.cls-27,.cls-34,.cls-35,.cls-4,.cls-6,.cls-9{mix-blend-mode:overlay;}.cls-5{fill:#ffbe87;}.cls-10,.cls-13,.cls-14,.cls-18,.cls-21,.cls-6,.cls-8{fill:#231f20;}.cls-18,.cls-27,.cls-6{opacity:0.4;}.cls-7{fill:#414042;}.cls-10,.cls-30,.cls-34,.cls-8,.cls-9{opacity:0.3;}.cls-12,.cls-30,.cls-35,.cls-9{fill:#fff;}.cls-11{fill:#27aae1;}.cls-13{opacity:0.1;}.cls-15{fill:#bfecff;}.cls-16{fill:#00a651;}.cls-17{fill:#58595b;}.cls-19{fill:#a96f36;}.cls-20,.cls-21,.cls-41{opacity:0.2;}.cls-20{fill:url(#linear-gradient);}.cls-22{fill:#c48a4a;}.cls-23{fill:#e6535f;}.cls-24{fill:#d64552;}.cls-25{clip-path:url(#clip-path);}.cls-26{fill:#76a635;}.cls-27{stroke:#fff;stroke-width:14.39px;}.cls-28{clip-path:url(#clip-path-2);}.cls-29{fill:#3c2415;}.cls-31{fill:#9c6939;}.cls-32{fill:#a66d35;}.cls-33{fill:#b57a42;}.cls-34{fill:url(#linear-gradient-2);}.cls-36{fill:#178dbf;}.cls-37{fill:#e6b18a;}.cls-38{fill:#d6996c;}.cls-39{fill:#eda977;}.cls-40,.cls-42{fill:#444040;}.cls-42{font-size:33.71px;font-family:Roboto-Medium, Roboto;font-weight:500;letter-spacing:-0.07em;}</style><linearGradient id="linear-gradient" x1="676.21" y1="423.65" x2="845.09" y2="450.21" gradientUnits="userSpaceOnUse"><stop offset="0" stop-color="#130c0e" stop-opacity="0.95"/><stop offset="0.99" stop-color="#130c0e" stop-opacity="0"/></linearGradient><clipPath id="clip-path"><path class="cls-1" d="M363.5,442.48c16.63,13.48,45,4.54,64.12,14.21,2.1-54.58-50.87-75.67-74.07-54C345.89,409.83,354.74,435.37,363.5,442.48Z"/></clipPath><clipPath id="clip-path-2"><path class="cls-1" d="M580.08,450.56c-30,4.06-57.79,2.77-87.75,6.83a77,77,0,0,1,31.54-51.61c17.29-12.45,38.55-13.73,59.55-10.12,9.07,1.57,18.17,4.89,24.68,11.4s9.88,16.7,6.52,25.28C609.63,445.09,593.65,448.72,580.08,450.56Z"/></clipPath><linearGradient id="linear-gradient-2" x1="434.08" y1="162.88" x2="439.39" y2="321.14" xlink:href="#linear-gradient"/></defs><title>Asset 1</title><g class="cls-2"><g id="Layer_2" data-name="Layer 2"><g id="Layer_1-2" data-name="Layer 1"><g id="Background"><polygon class="cls-3" points="835.52 1348.96 216.32 1384.79 50.88 218.89 1016.32 215.43 835.52 1348.96"/><polygon class="cls-4" points="835.52 1348.96 216.32 1384.79 50.88 218.89 1016.32 215.43 835.52 1348.96"/></g><path class="cls-5" d="M366,754.25A123,123,0,0,0,331.67,792,10.58,10.58,0,0,1,328,795.7c-12.84,20.7-60.54,81.48-82.73,106.35,9.8,17.61,19.73,35.14,28.35,53.26,33.47-43.8,98.25-132.12,128.59-185.08,6.81-11.88,45.76-46,52.41-62.36C447.68,710.68,378.57,747.74,366,754.25Z"/><path class="cls-6" d="M366,754.25A123,123,0,0,0,331.67,792,10.58,10.58,0,0,1,328,795.7c-12.84,20.7-60.54,81.48-82.73,106.35,9.8,17.61,19.73,35.14,28.35,53.26,12-15.73,28.09-37.22,45.14-60.74C313,883,309,869.42,302.43,858.21c-6.92-11.85,4.39-16.47,11.3-4.65,4.92,8.41,14.5,13,19,21.66,26.32-36.89,53-76.17,69.53-105,6.81-11.88,45.76-46,52.41-62.36C447.68,710.68,378.57,747.74,366,754.25Z"/><path class="cls-5" d="M367,862.94c-10.29,32.24-1.81,72.3-1.16,106.57l121.42-8.32C490.82,946.15,616,759.58,616,759.58c2.82-4.77,5.71-20.36,6.15-25.89,2.2-27.48-34.61-13.65-50.83-30.12-13.21-13.42-10.83-42.28-9.66-61.07s5.21-37.71,2.07-56.27c-22.2-1-39.67,19.39-47.87,40-9.38,23.64-11.89,67.62-40.25,76.53-7.81,2.46-16.35,3.71-22.74,8.85-3.6,2.89-6.2,6.81-9,10.49C425.7,746,397.45,759.74,371,772.43a39.06,39.06,0,0,0-19.23,50.22C357.37,836,358.74,851,367,862.94Z"/><path class="cls-6" d="M554.06,651.52q.66-.93,1.35-1.83c6.69-8.82,6.94-15.37,8.07-26.71.32-3.17,3.24-36.62.24-36.75-22.2-1-39.67,19.39-47.87,40-4.34,10.93-7.21,26.2-11.84,40.35,11-2.66,21.43-8.54,32.17-10.62a2,2,0,0,1,1.66.19,2,2,0,0,1,.47,1.61c-.22,20.52-7.87,40.14-15.4,59.22C531.93,695.5,540.22,670.64,554.06,651.52Z"/><path class="cls-7" d="M449.82,990.75h-79.6c-.74,9.63-2.26,18.43-5.05,26-33.77,91.4-17.42,209.27,5.78,300.84,17.07,67.38,27.76,136.29,35.41,205.32,7.86,70.82,1.1,93.87,9.69,164.46,12.53,3.67,15.93,5.31,51,3.19,23.33-1.42,25.49,1.85,49.76-5.24q-.43-65.86-2-131.73c-.56-23.34-1.28-47-7.61-69.43-10.61-37.66-26.12-65.63-24.09-105.55a629.92,629.92,0,0,1,15.53-112.31c10.54-45.37,15.91-96.94,11.91-145.57C504.66,1049.58,455.07,1018.31,449.82,990.75Z"/><path class="cls-8" d="M350.91,1124.27c12.24,1.21,40.85-.87,48.5,8.28,21.28,25.45,33.33,61.58,46.32,91.62,17.54,40.57,34.45,57.16,29.44,102.39-1.65,15-4.93,82-2.33,91,2.64,9.21,8.77,16.93,14.1,24.89a167.3,167.3,0,0,1,19,38.23c-12.92-40.25-26-81.81-22.49-124,2.56-30.72,8.18-60.61,15.11-90.48,10.54-45.37,15.91-96.94,11.91-145.57-5.85-71.12-55.44-102.39-60.69-130h-79.6c-.74,9.63-2.26,18.43-5.05,26-12.25,33.15-17.88,69.79-19,107.39A37.77,37.77,0,0,1,350.91,1124.27Z"/><path class="cls-7" d="M481,988.48l-97.86,32.9c2.33,9.36,75.26,222.53,126.18,302.1,73,114.07,110.33,203.48,144.41,346.52,35.66,1.76,54.76,15,70.84,1.92,3.06-2.49,6.23-5.25,7.38-9,.89-2.93.44-6.08,0-9.11-7.18-47.57-14.47-95.29-27.06-141.79s-33.59-85.41-55.11-127.84c-23.74-46.81-30.91-100.26-35.52-149.65-4.32-46.37-15.5-97-34.65-141.88C551.58,1027,494.66,1013,481,988.48Z"/><path class="cls-9" d="M623.19,1367.31c14.12,25.15,29.95,49.3,43.14,75a544.28,544.28,0,0,1,33.31,79.14c15.41,47.11,24.23,95.83,29,145,1.59,2.63,2.91-3,2.91-6.4-2.48-11.26-7.79-152.24-81.76-275.92-26.94-45-30.91-100.26-35.52-149.65-4.32-46.37-15.5-97-34.65-141.88a152.24,152.24,0,0,0-25.51-40.76c27.49,46.86,38.1,100.89,44.35,154.28,3.25,27.66,5.38,55.43,8.18,83.14C609.35,1316.51,614.27,1341.87,623.19,1367.31Z"/><path class="cls-8" d="M568.79,1080.86,406.49,1083l12.75,41.42,169-.27C581.74,1109.72,574.93,1095.43,568.79,1080.86Z"/><path class="cls-5" d="M720.18,878.34c-6.15-11.48-102.73-48.4-133.85-66.61-3.71-2.17-164.12-72.26-5.57-89,38.74-4.09,53.83,17.84,80.35,41.09C692.13,791,776,855.16,781.52,865c15,26.62-48.44,193.89-62,237.75a349.3,349.3,0,0,0-54.09-3c21.17-3.67,32.93-24,33-44.16,0-2.31-.73-5.31-3-5.49-1.94-.15-3.23,1.91-4.14,3.64A61.26,61.26,0,0,1,662,1081.09c-2.47,1.09-6.46,1.21-6.74-1.47a4.5,4.5,0,0,1,.84-2.61c5.92-10.35,13.17-20,17.77-31.06,10.86-26,32.09-31.79,37.06-38C717.78,999.38,722.54,882.76,720.18,878.34Z"/><path class="cls-10" d="M740.44,828.7c-27.57-22.47-61.84-49.54-79.33-64.87-26.52-23.25-41.61-45.18-80.35-41.09-158.55,16.73,1.86,86.82,5.57,89,24.2,14.16,88,39.62,118,55.65A403.57,403.57,0,0,1,740.44,828.7Z"/><path class="cls-11" d="M678.68,864.23C696,844.5,713.55,825,729.87,804.48c-20.24-16-83.62-70-85.46-75.55-3.19-9.56-70.46-26.06-72.23-26.2-18.83,14-69.39,57.36-97.33,27-8.59-9.34.95-21.6,6-31.27-16.75.7-82.95,2.08-96.65,12.75-4.84,3.77-61.53,84.94-83.74,120.5,15.69,14.87,29.1,32.16,41.7,49.77a87,87,0,0,1,11.21-17.3c.21-.26,8.43,20.34,8,23.45-5.87,45.21,16.79,145.76-24.5,204.15,20.55,8.54,50,14.21,72.19,12.11,54.38-5.14,101.66-24.25,152.55-44.09-15.33-14.34-63.38-62.8-41.84-121.29,6.39-17.34,72.91-110.46,77.9-110.46,1.41,0,64.93,26.37,78.59,35A11,11,0,0,0,678.68,864.23Z"/><path class="cls-9" d="M627.93,726.85c1.55,1.35,3.06,2.75,4.5,4.21a287.71,287.71,0,0,0-15.69,40.29A132.41,132.41,0,0,1,639.43,739q38,35,77.65,68.13a191.18,191.18,0,0,0-29.29,48c8-8.85,46.34-53.33,41.59-52.61-4.53.69-55.11-44.82-67-55.63-4.88-4.43-15.73-11.4-17.94-18-3.44-10.31-30.35-14.36-39.26-16.32A85.28,85.28,0,0,1,627.93,726.85Z"/><path class="cls-12" d="M461.94,699.21c-9.67,13.85-12.74,32.53-3.09,47.4,10.07,15.52,28.44,18.19,45.46,14.07,32.42-7.85,61.22-29.34,84.83-53.72-9.42-2.54-16.4-4.19-17-4.23-18.83,14-69.39,57.36-97.33,27-8.59-9.34.95-21.6,6-31.27C476.87,698.65,470.1,698.85,461.94,699.21Z"/><path class="cls-13" d="M485.37,756.86c-12.37-1.15-13.52-19.05-3.16-21.1a33.34,33.34,0,0,1-7.36-6c-8.59-9.34.95-21.6,6-31.27-4,.17-10.73.37-18.89.73-9.67,13.85-12.74,32.53-3.09,47.4,10.07,15.52,28.44,18.19,45.46,14.07a135,135,0,0,0,31-12C519.33,754.69,502.36,758.44,485.37,756.86Z"/><path class="cls-14" d="M667.37,856.22c-14.38-8.78-58.93-33.43-70.4-38.78-15.77,24-37.63,48.88-48.84,75.28,21.1-30.71,46.53-64.65,49.55-64.65,1.41,0,64.93,26.37,78.59,35a11,11,0,0,0,2.41,1.11l.7-.8Q673.35,859.86,667.37,856.22Z"/><path class="cls-14" d="M345.71,875a228,228,0,0,0-12.83-19.65c-5.87-7.83-15.11-13.86-14.87-24.7.24-10.5,50.62-87.34,60.42-101.16,7-9.87,13.75-18.59,23.91-24.61-8.22,1.63-14.78,3.69-18.16,6.32-4.84,3.77-61.53,84.94-83.74,120.5,15.69,14.87,29.1,32.16,41.7,49.77C343.23,879.29,344.44,877.14,345.71,875Z"/><path class="cls-15" d="M507.12,865.69c-12.49,39.17-49.26,62.15-82.43,55.7-32.1-6.25-54.42-38.9-50.38-76.92,4.56-43,40.68-78.51,81.59-73.75C498.54,775.7,521.36,821,507.12,865.69Z"/><path class="cls-14" d="M401.52,770.33l-35.47,32.55c-12.12,11.12-25.34,25.31-22.37,41.48,2,10.76,13.92,17.9,15.42,28.74.59,4.22,1.18,47.42,3.49,88.8,3.18,57-7.9,102-26.65,128.67a281.35,281.35,0,0,0,33.56,12.2c-8.12-7.23-9.2-19.54-7.83-30.32,1.9-14.83,7.28-29,10.34-43.61,5-23.69-4.3-102-.49-116.24,1.27-4.76,3.84-9.87,8.59-11.18,2.34-.65,4.82-.25,7.23.07,14.09,1.91,37.45-8.58,41.81-7.22,2.76.87,65.14,32.93,94.18-14.16,6.46-10.48,7-21.41,15.38-30.47A246.68,246.68,0,0,1,492,867.37c-10.93,2.92-53.5-19.53-65-18.42-113.47,11-51.58-52-38.33-64.17C394,779.86,398.39,776.88,401.52,770.33Z"/><rect class="cls-16" x="54.45" y="718.27" width="250.87" height="353.29" rx="24.76" transform="translate(-335.01 141.18) rotate(-22.97)"/><path class="cls-6" d="M358.61,995.13l-6-14.12c-12.31,13.29-29.31,19-46.94,23.53-20.94,5.37-41.58,10.14-62,17.41-16.37,5.84-36.54,12-53.83,6.17-14.29-4.78-23.24-22.93-30-35.11-21.92-39.31-35.5-82.9-54.95-123.46-17.9-37.32-37-74.07-54-111.8L8.92,775.53A14.62,14.62,0,0,0,1.16,794.7l126.47,298.35a14.63,14.63,0,0,0,19.18,7.75l204-86.49A14.63,14.63,0,0,0,358.61,995.13Z"/><rect class="cls-12" x="66.66" y="729.74" width="223.78" height="324.05" transform="translate(-333.89 140.41) rotate(-22.97)"/><polygon class="cls-13" points="147.33 729.01 12.29 786.26 138.77 1084.61 147.33 1080.98 147.33 729.01"/><rect class="cls-17" x="56.53" y="726.77" width="116.8" height="36.04" rx="18.02" transform="translate(-281.57 103.93) rotate(-22.97)"/><path class="cls-10" d="M84.79,777.15l13.45-5.7Q128.09,741.71,158,712a17.94,17.94,0,0,0-12.9.42L70.72,744a18,18,0,0,0,14.07,33.19Z"/><path class="cls-18" d="M305.77,946.51l.11,0-.83-2-.1,0L273.7,870.12,274,870l-.84-2-.3.13L227.27,759.53h0l-.83-2h0l-7.74-18.43-.41-1L41,812.58l-1,.41,104.27,248.37,177.26-74.42,1-.41Zm5,17.4-40.88,17.41-7-16.53,40.92-17.45Zm-121-166.55,6.58,15.52L65.7,868.57,59.15,853ZM58.33,851l-6.93-16.5,130.5-55.64,7,16.52Zm155.14-3-6.57-15.52,41.31-17.6,6.52,15.53Zm42.08-15.63,6.95,16.56L221.29,866.5l-7-16.53Zm-49.48-1.85-7-16.52,41.35-17.64,7,16.56Zm-7.82-18.48-6.57-15.52,41.41-17.65,6.52,15.53Zm-1.13,2.79,7,16.53L73.45,887l-6.93-16.5ZM205,833.32l6.57,15.53L80.82,904.58,74.27,889Zm7.4,17.48,7,16.53L88.56,923l-6.92-16.49Zm7.82,18.48,7.66,18.1L97,943.16,89.39,925Zm8.48,20.05,7,16.53L104.76,961.61l-6.93-16.49Zm7.83,18.48,7.33,17.33L112.88,981l-7.3-17.4Zm2-.83,41.09-17.5,7.28,17.33-41,17.5Zm6.21,20.12,7,16.52-131,55.8-6.92-16.49Zm7.82,18.48,7.66,18.09-131,55.87-7.63-18.16Zm8.48,20,7,16.52L136.83,1038l-6.93-16.5Zm1.13-2.79-7.66-18.1,40.85-17.4-.83-2-40.84,17.4-7-16.53,41-17.49L303,945.39Zm16.63-75.32L237.6,905l-7-16.53L271.75,871Zm-48.92-1-7.66-18.09,41.21-17.55,7.59,18.1Zm2.49-109.61-41.42,17.64-7-16.53,41.46-17.68Zm-7.77-18.52L183,776.09l-7.48-17.68,41.61-17.47Zm-50.91.82,7.48,17.69L50.58,832.56l-7.74-18.44ZM137.65,1040l131.12-55.85,8.16,19.28-131.46,55.19Zm141.24-37.39-8.17-19.3,40.87-17.41,8.2,19.54Z"/><g id="Hair"><path class="cls-19" d="M788.05,680.14c6.15,2.27,12.89,2.32,19.43,1.78a116.57,116.57,0,0,0,45.43-13.45c-15.73,32.26-42,59.74-74.76,74.47s-71.83,16-104.42.93c-16.56-7.64-31-19.08-45.05-30.75-20-16.65-40-34.78-50.56-58.58-11.8-26.62-10.32-57.47-2.92-85.64s20.31-54.49,31.17-81.51a587.53,587.53,0,0,0,41.79-239.84c-.7-18.74-2.29-37.63.66-56.15a117.34,117.34,0,0,1,48.86-77.31c4.74-3.25,9.84-6.19,15.46-7.37,5.86-1.22,11.93-.46,17.82.58,54.87,9.76,104.47,45.72,130.81,94.83,10.35,19.3,17.21,40.33,22.13,61.67,8,34.85,10.92,71.69,1.38,106.15-6.37,23-18.06,44.24-30.81,64.46-24.53,38.92-53.35,75.16-75.56,115.46-10.17,18.46-19,38.09-21.66,59s1.61,43.43,15.2,59.55C776.69,673.45,781.88,677.86,788.05,680.14Z"/><path class="cls-20" d="M788.05,680.14c6.15,2.27,12.89,2.32,19.43,1.78a116.57,116.57,0,0,0,45.43-13.45c-15.73,32.26-42,59.74-74.76,74.47s-71.83,16-104.42.93c-16.56-7.64-31-19.08-45.05-30.75-20-16.65-40-34.78-50.56-58.58-11.8-26.62-10.32-57.47-2.92-85.64s20.31-54.49,31.17-81.51a587.53,587.53,0,0,0,41.79-239.84c-.7-18.74-2.29-37.63.66-56.15a117.34,117.34,0,0,1,48.86-77.31c4.74-3.25,9.84-6.19,15.46-7.37,5.86-1.22,11.93-.46,17.82.58,54.87,9.76,104.47,45.72,130.81,94.83,10.35,19.3,17.21,40.33,22.13,61.67,8,34.85,10.92,71.69,1.38,106.15-6.37,23-18.06,44.24-30.81,64.46-24.53,38.92-53.35,75.16-75.56,115.46-10.17,18.46-19,38.09-21.66,59s1.61,43.43,15.2,59.55C776.69,673.45,781.88,677.86,788.05,680.14Z"/><path class="cls-21" d="M593.17,668.07c-24.06-28.59-26.36-70.3-17.23-106.54S604,492.44,619,458.21c18.49-42.17,31.2-87.35,32.44-133.38.83-30.3-3.3-60.8.72-90.85A168.8,168.8,0,0,1,666,186c12.44-27.13,36-52.77,65.77-53.71,22.6-.72,43,12.78,60.85,26.63,14.27,11.05,28.16,22.76,39.75,36.59,24.71,29.45,37.94,67.93,38.27,106.37.43,50.69-18.93,93.7-46.26,135.51-24.38,37.29-52.26,73.17-67,115.23S743.89,645.78,773.64,679c-12.18-3.84-21.79-13.58-28.15-24.66s-9.86-23.51-13.3-35.8c2.64,9.42-.25,21,2.75,31.17A82.81,82.81,0,0,0,750.85,679c13.52,16.42,33.35,28.35,55.23,26.77-21.51,14.76-52.67,10-72.34-7.14-17.82-15.51-28.67-49.15-30.36-72.31-1-13.92,2.56-27.76,6.93-41,24.49-74.3,73.74-138,93.89-213.87-5.89,18.52-15.67,35.56-26,52.05-18.22,29.14-38.36,57.13-54.68,87.38s-28.83,63.29-30.27,97.62c-2.54-42.68,16.17-83.57,36.5-121.18s43.16-75.19,50.06-117.38c-11.2,14-17.57,34.47-26.19,50.27-9.79,18-20,35.7-30.18,53.48-23.49,41.26-44.94,80.77-44.24,129.89.67,46.47,23.14,94,63.36,117.27-34.85-9.46-61.46-40.2-72-74.73s-6.7-72.19,4.28-106.59,28.75-66.17,46.41-97.67c-15.68,15.72-24.72,36.61-34.92,55.94-11.5,21.79-22.2,44.45-29.05,68.17-7.88,27.3-10.24,56.92-1.59,84,5.47,17.11,15.13,32.64,26.53,46.51,17.59,21.44,42.83,40.38,70.42,37.51-16.53-.84-33.16,2-49.62.3-46.7-4.82-83.58-46.82-93.83-92.64s1.62-94,20.62-136.89,45-82.44,65.07-124.87A503.69,503.69,0,0,0,736.64,246c2.27-13.83,3.79-28.78-2.73-41.18,5.29,23,.48,47.11-5.91,69.85-26,92.59-77.58,175.54-118.37,262.64-9.65,20.59-18.78,41.68-23,64S583.3,647.59,593.17,668.07Z"/><path class="cls-9" d="M808.27,455.11c-7.16,17.3-13.5,35.32-22.41,51-24.61,43.22-55.28,79-52.5,132.26a179.78,179.78,0,0,1,10.81-91.91,155.77,155.77,0,0,0-16.43,58.15,139.25,139.25,0,0,1,7.68-78c-34.63,53.76-42.85,123.69-21.65,184-24-35.79-25.29-81.65-25.74-124.75a167.16,167.16,0,0,0-5.61,53.93l-9.54-38.66a234.72,234.72,0,0,0,.72,76.24,193.35,193.35,0,0,1-14.74-106c-13.61,28.46-14,61.2-14.16,92.74a501.58,501.58,0,0,1-13.78-73.21A184.5,184.5,0,0,0,633,683.1c-14.29-28.8-15.25-63.17-6.14-94S654.51,530.82,677.1,508a144.38,144.38,0,0,0-10,45.28c3.21-56.91,61-107.9,86.9-155.26,29.91-54.63,43.59-118.24,37.62-180.32,13.64,50.4,11.55,104.64-3.93,154.51l21.1-52.23a811.13,811.13,0,0,1-26.65,90.63c19-34.69,34.7-71.92,39-111.24s-3.84-81.12-28.41-112.11c33.61,32,44.84,82.07,40.21,128.23s-23.06,89.65-41.27,132.32l43.92-96.29c16.59-36.39,33.36-78.23,17.59-115,17.64,42.43,9.65,91.41-6.71,134.36-8.93,23.44-20.24,45.85-31.15,68.42C812.8,444.42,810.49,449.73,808.27,455.11Z"/></g><g id="Head"><path class="cls-5" d="M332.14,270.66c-7.53,12.6-7.63,28.16-6.94,42.83a563.36,563.36,0,0,0,13.46,98.62c2.9,12.7,6.25,25.87,3.36,38.57-2.11,9.33-7.47,17.68-9.56,27-3.53,15.74,2.62,31.91,9.36,46.57,16.59,36.06,39.49,68.66,62.26,101.18,47.61,68,96.24,21.52,123.23,7.88C654.64,569,658.49,504.15,654.64,504.11c62.76,47.08,138.09-173.66,26.09-94.22,12.32-11.86,38.77-83.62,27.87-132-7.93-35.25-29.16-66.9-57.45-89.36s-62.89-36.2-98.42-42.74c-15.2-2.8-30.72-4.33-46.13-3.06C491.37,144,476.48,148,462,152.87c-28.45,9.67-55.93,23.23-78.62,42.92s-43.3,42.69-50.83,71.86c-.09.36-.14.84.18,1S332.52,270.63,332.14,270.66Z"/><path class="cls-21" d="M708.6,277.87c-7.93-35.25-29.16-66.9-57.45-89.36s-62.89-36.2-98.42-42.74c-15.2-2.8-30.72-4.33-46.13-3.06C491.37,144,476.48,148,462,152.87c-28.45,9.67-55.93,23.23-78.62,42.92s-43.3,42.69-50.83,71.86c-.09.36-.14.84.18,1s-.22,1.94-.6,2c-7.53,12.6-7.63,28.16-6.94,42.83a563.36,563.36,0,0,0,13.46,98.62c2.9,12.7,6.25,25.87,3.36,38.57-2.11,9.33-7.47,17.68-9.56,27-3.53,15.74,2.62,31.91,9.36,46.57,16.59,36.06,39.49,68.66,62.26,101.18,23.82,34,47.89,39.39,69.39,34.54A63.72,63.72,0,0,1,443,649.1C422.84,635.19,339.93,525,347.71,478.82c2.35-13.94,5-27.43,3.55-41.62-.94-9.4-2.4-18.84-4-28.13-1.2-7-6.65-15.2-4.88-22.28,1.37-5.5,7.14-8.57,12.42-10.64,6.5-2.54,27.69-2.95,36.19-2-13.47-3.61-17.15-12.39-53.24.13-4.74-11.87-2.26-28.95,10.34-34.74,12.11-5.55,26.87-6.82,39.81-9.88,16-3.78,31.95-7.48,47.89-11.37,27.73-6.76,55.87-13.33,82.79-22.92,21.29-7.59,43.56-16.88,54.17-28.66a11.94,11.94,0,0,1,8.56-9.11c.27-.34.55-.65.81-1,8.24-10.68,26.71-.13,18.34,10.72-.56.73-1.15,1.42-1.72,2.12,19.9,18.34,45.68,31,58.31,56,8.88,17.55,12.51,36.82,16.71,55.86,2.11,9.55,2.3,19.37,2.82,29.13a10.05,10.05,0,0,1,4.8,3c2.13-2.89,4.38-5.7,6.69-8.46-2.36,1.5-4.8,3.14-7.35,4.95C693.05,398,719.5,326.27,708.6,277.87Z"/><path class="cls-22" d="M727.31,439.21a37.62,37.62,0,0,0,1.34-19.37c-.32-1.65-.91-3.48-2.43-4.21a5.17,5.17,0,0,0-2.65-.32c-7.75.59-14.64,5.25-20.21,10.68C686,443,676.27,461,672,483.93c8-43,46.54-39,42.9-39.63a38.16,38.16,0,0,0-26.71,4.82C691.47,447.12,733.1,388.07,727.31,439.21Z"/><path class="cls-12" d="M463.81,595.05c-8.48.06-17.46-2.81-22.58-9.57-2.82-3.73-4.24-8.31-5.87-12.7a122.65,122.65,0,0,0-21.82-37.12c46.91-6.15,95.8,5,141.24-8.1q-17.94,19.07-36.73,37.31C502.82,579.66,485,594.93,463.81,595.05Z"/><path class="cls-23" d="M439.5,606.55c-10.38-8-25.83-58.58-24-71.08,8.29,11,25.16,49.22,30.38,53.71,5.88,5,14.44,6,22,4.23s14.28-5.9,20.73-10.19a348.57,348.57,0,0,0,51.15-41.51c5.56-5.46,11.21-11.29,18.57-13.84a645.08,645.08,0,0,1-41.29,52c-10,11.34-20.75,22.58-34.45,29S451.47,615.77,439.5,606.55Z"/><path class="cls-10" d="M514.83,580.05c-15.27,13.16-33.93,33.64-55.93,29.9-8.94-1.52-9.43-11-4.84-16.6a20.71,20.71,0,0,1-8.21-4.17c-5.22-4.49-22.09-42.68-30.38-53.71-1.8,12.5,13.65,63.08,24,71.08,12,9.22,29.35,8.63,43,2.24s24.45-17.63,34.45-29c2.45-2.77,4.84-5.6,7.24-8.42C521.17,574.36,518.05,577.27,514.83,580.05Z"/><path class="cls-24" d="M407.69,535.15c5.27-7.87,15.85-9.89,25.3-10.57,41.45-3,85.61,4.72,127.15,3.25-34.17,7.2-72,10.2-106.86,11.32C438,539.65,422.22,540.09,407.69,535.15Z"/><path class="cls-10" d="M479.58,524.65c-15.72-.81-31.34-1.16-46.59-.07-9.45.68-20,2.7-25.3,10.57,14.53,4.94,30.26,4.5,45.59,4,6.37-.2,12.85-.5,19.37-.84C451.63,532.79,473.38,526.23,479.58,524.65Z"/><g class="cls-25"><path class="cls-12" d="M363.5,442.48c16.63,13.48,45,4.54,64.12,14.21,1.05-53-50.87-75.67-74.07-54C345.89,409.83,354.74,435.37,363.5,442.48Z"/><path class="cls-26" d="M455.87,423.56C455.08,442.61,435,457,411.93,457s-41.84-15.46-41.84-34.53,19.78-40.8,42.89-40.8S456.92,398.45,455.87,423.56Z"/><path d="M431.3,423.69c-.42,10.14-11.08,17.81-23.37,17.81S388,432.07,388,421.92s8.15-20.49,20.44-20.49S431.86,410.34,431.3,423.69Z"/><path class="cls-27" d="M431.3,423.69c-.42,10.14-11.08,17.81-23.37,17.81S388,432.07,388,421.92s8.15-20.49,20.44-20.49S431.86,410.34,431.3,423.69Z"/><path class="cls-12" d="M433.18,423c-.29,6.78-7.42,11.91-15.64,11.91a12.93,12.93,0,0,1-13.31-13.1,13.75,13.75,0,0,1,13.68-13.71C426.14,408.06,433.55,414,433.18,423Z"/></g><g class="cls-28"><path class="cls-12" d="M579.42,450.43c-30.51,4.13-58.87,2.82-89.38,7,3.3-21.45,13.37-35.95,31-48.62a83,83,0,0,1,61.79-14.25c9.24,1.59,18.51,5,25.14,11.61s10.06,17,6.64,25.74C609.52,444.86,593.24,448.56,579.42,450.43Z"/><path class="cls-26" d="M619.07,423.56c-.8,19.05-20.83,33.48-43.94,33.48s-41.85-15.46-41.85-34.53,19.79-40.8,42.9-40.8S620.11,398.45,619.07,423.56Z"/><path d="M600.09,421.73c-.45,10.71-9.9,18.82-22.9,18.82s-21.72-8.69-21.72-19.41,9.31-22.94,22.31-22.94S600.67,407.61,600.09,421.73Z"/><path class="cls-27" d="M600.09,421.73c-.45,10.71-9.9,18.82-22.9,18.82s-21.72-8.69-21.72-19.41,9.31-22.94,22.31-22.94S600.67,407.61,600.09,421.73Z"/><path class="cls-12" d="M610.51,421.45c-.29,7.05-6.51,12.39-15.06,12.39s-14.29-5.72-14.29-12.77S587.29,406,595.84,406,610.9,412.17,610.51,421.45Z"/></g><path class="cls-29" d="M555.15,397.82c13.56-1.33,24.86,1.64,37.5,5.9,31,10.43,45.8,3.91,53.15-1.63a129.42,129.42,0,0,1-30.41-2.78c-4.76-1-37.12-17.25-65.72-12.36-48.94,8.35-59.38,69.82-55.79,71.13C497.82,424.61,520.32,401.22,555.15,397.82Z"/><path class="cls-29" d="M386,395.49c-9.23-1.84-16.93.7-25.54,4.47-21.09,9.24-31.2,2.16-36.21-3.66A59.84,59.84,0,0,0,345,394.68c3.24-.83,25.29-15.83,44.77-9.85,33.33,10.22,40.41,72.08,38,73.26C425.08,424.47,409.76,400.22,386,395.49Z"/><path class="cls-30" d="M623.17,431.53c-14,18.86-32.14,21.11-53.84,22.5-20.26,1.29-77.91,8-73.62,7.24,25.9-4.67,64.46-.75,90.19-5.94C623.17,447.82,624.15,430.22,623.17,431.53Z"/><path class="cls-30" d="M429.34,458c-8.14-5.35-17.38-6.93-27-6.63-16.82.52-31.75,1.52-46-8.86-1.47-1.07,12.3,14,23.3,14.49C394.71,457.77,430.38,458.71,429.34,458Z"/><path class="cls-31" d="M500.94,338.92c0,.09,0,.19,0,.28.24,4.8,5.09,8.56,9.4,6.41,60.94-30.5,110.46-8.88,131.38,4.37C590.12,297.68,502.85,336.25,500.94,338.92Z"/><path class="cls-31" d="M324.83,339.53c.17,1.81.31,3.61.44,5.42,19.74-9.69,48.28-14.91,81.14,5.12,3.32,2,7.07-1.87,7.25-6.69,0-.09,0-.18,0-.28C412.42,340.89,363.87,314.74,324.83,339.53Z"/><path class="cls-32" d="M567.12,94.11c240,41.2,220.2,248,140.36,313.53-17.88,14.68-38.19,28.6-47.29,49.88,2.57-6,15.58-106.39-10.05-160.08C616.85,227.73,479.23,208.9,437,218.3c-22,4.88-44.7,10.34-66.69,5.56s-39-23.59-35.52-45.81C344.73,115.57,500.42,82.65,567.12,94.11Z"/><path class="cls-33" d="M603,161.45a15.4,15.4,0,0,0-1.14-1.42c-18.89-19.52-151.82-16.37-201.25-1-56.21,17.51-90.74,62.51-125.6,117-12,18.67-14.11,44.6-3.59,64.12,5.44,10.1,50.08,45.16,63.42,55.09-1.5-4.36-6.73-43.38-5.8-45.84,1-2.89,22.36-12,26.54-14,15.92-7.62,33.78-12.5,50.36-18.57l102.17-37.42c26.82-9.82,54.5-20.17,75-40.07C599.13,223.74,619.75,183.66,603,161.45Z"/><path class="cls-34" d="M603,161.45a15.4,15.4,0,0,0-1.14-1.42c-18.89-19.52-151.82-16.37-201.25-1-56.21,17.51-90.74,62.51-125.6,117-12,18.67-14.11,44.6-3.59,64.12,5.44,10.1,50.08,45.16,63.42,55.09-1.5-4.36-6.73-43.38-5.8-45.84,1-2.89,22.36-12,26.54-14,15.92-7.62,33.78-12.5,50.36-18.57l102.17-37.42c26.82-9.82,54.5-20.17,75-40.07C599.13,223.74,619.75,183.66,603,161.45Z"/><path class="cls-21" d="M343,262.47c-15.9,14.57-30.62,31.4-37.57,51.82s-4.72,45,10.09,60.73c-8.42-15.33-8.38-34.35-2.7-50.89s16.5-30.87,28.72-43.38C384,237.2,442.83,214.29,499.72,192.6c-54.46,23.09-109.8,48.68-150.36,91.74a428.2,428.2,0,0,1,155.88-78.45c-67.62,29.35-138.47,61.51-181.39,121.45,66.83-65.95,165.3-87.18,243.6-139-69.87,56.15-152.36,93.89-229.34,139.8-7.81,4.66-15.88,9.71-20.53,17.52s-4.6,19.22,2.55,24.83c-3.88-7.24-1.38-16.58,3.9-22.88s12.81-10.19,20.19-13.79C413.57,300,488.06,277,555.84,240.14c18.91-10.3,38-22.47,48.57-41.25,2.59-4.61,4.63-9.73,4.45-15-.28-8.3-6-15.47-12.38-20.75-22-18.07-52.89-20.19-81.25-17.9-63.58,5.16-127.82,30.58-179.84,67.45-26.19,18.56-49,43.27-59.93,73.45-3.6,10-5.87,20.76-4.11,31.24,3.09,18.34,17.62,32.3,31.36,44.84C289,347.26,286,324.84,290,305c5.69-27.92,21.94-51.53,43.7-69.51,20.39-16.84,48.22-34.33,73.84-40.92-23.29,15.86-59.79,36.85-79.68,56.8s-23.18,39.19-31.06,66.23C323.11,242.29,401.77,217.28,430,206.64,397.7,218.82,368.23,239.29,343,262.47Z"/><path class="cls-21" d="M712.19,404.17a135.71,135.71,0,0,1-47.76-53.53c-1.5,4.4-2.71,8.69.23,19.63,5.39,20.06,24.86,35.2,45.47,36.38C710.8,405.81,711.49,405,712.19,404.17Z"/><path class="cls-21" d="M689.83,375.35c7.33,5.23,22.34,10.84,35.47,13,1.66-2.34,3.21-4.74,4.69-7.2-23.34-13.93-54.86-34.12-69.91-55.18.33,1.62,6.16,19.37,4.82,23.34C672.27,358.89,680,368.33,689.83,375.35Z"/><path class="cls-21" d="M745,351c-26-17.4-62.85-35.52-86.28-49.06,25.68,3.38,65.4,18.5,91.95,34.3q.87-2.49,1.65-5c-25.53-25.57-69.47-48.38-100.58-54.33,30.44-3.24,73,14.11,106.16,31.45a139,139,0,0,0,1.87-18.4c-19.42-19.49-45.64-37-65-45.83a131.35,131.35,0,0,0-96.08-4.78c29.62,20.62,52.91,49.33,61.39,83.95,17.92,16.32,55.19,29.24,81.74,34.91Q743.46,354.61,745,351Z"/><path class="cls-9" d="M281.19,281A143.14,143.14,0,0,1,313.28,242a165.46,165.46,0,0,0-18.62,32.5l19.75-24.25a185.61,185.61,0,0,0-21.9,43.54,178.21,178.21,0,0,1,85.89-78.31,172.93,172.93,0,0,0-68.33,71.66,178.21,178.21,0,0,1,48.28-45.34A142,142,0,0,0,318.68,290a208.85,208.85,0,0,1,82-61.31A252.05,252.05,0,0,0,338.15,284a191.9,191.9,0,0,1,38.35-26.9l-24.23,21c1.43-.79,3.06,1.28,2.54,2.83s-2.12,2.41-3.59,3.12a589.15,589.15,0,0,1,85-50.78Q400.07,261,362.29,286.6a421.42,421.42,0,0,1,64.11-31.85,280.57,280.57,0,0,0-44.31,29.36l41.22-19.95-31.06,21.42q49.41-20.88,98.18-43.24a486.53,486.53,0,0,1-127.92,68.57A124.84,124.84,0,0,0,398.44,293a544.21,544.21,0,0,0-59.78,24.13l24.22-16.93a308.13,308.13,0,0,0-48.39,29.44l22.83-31-31.11,29.68c2.47-6.54,10.49-18.13,8.38-25-5.19,3.47-13,13.75-12.68,20.64a83.65,83.65,0,0,1,1.93-22.53,66.89,66.89,0,0,0,3,58.34l-12.42-17.51a54.12,54.12,0,0,1-5.45-8.85A39.34,39.34,0,0,1,286,322.07c-.93-7.3.27-14.46-.09-21.64-4.91,4.95-10.06,19.56-7,26.63a72.47,72.47,0,0,1-5.52-21.61,149,149,0,0,0-4.6,27C268.52,305,267.8,305,281.19,281Z"/><path class="cls-35" d="M698.93,415.89A80.56,80.56,0,0,1,679.37,391l-1-1.94,1.92,1.06a61.84,61.84,0,0,0,31.78,7.51l-.61,2.35A106.76,106.76,0,0,1,694,387.91a109.34,109.34,0,0,1-14.73-15.38l-5.51-7,7.87,4.29a100.2,100.2,0,0,0,39.41,11.87l-1.3,4.3a175.67,175.67,0,0,1-21.23-13.05,165.33,165.33,0,0,1-19.15-16l-6.67-6.48,9.15,1.82,44,8.78-2.21,5.46-47-29.82-13.93-8.83L678.94,331l55.62,10.69-2.16,5.8-47.78-27.78-8.4-4.88,9.67-.71A122.26,122.26,0,0,1,736,320.92l-2.19.16a1.29,1.29,0,0,0-.53.56,1.47,1.47,0,0,0-.15.69c0,.18,0-.08-.18-.31a3.34,3.34,0,0,0-.64-.72,2,2,0,0,0-.35-.25l-.74-.45c-2-1.21-3.84-2.28-5.86-3.35-4-2.12-8.07-4-12.25-5.79-8.37-3.52-17-6.46-25.75-9.39l-12.79-4.32,13.45.07a249.47,249.47,0,0,1,44.66,4.24l-1.4,3A87.39,87.39,0,0,0,697,286.53l-3.66-1,3.6-1q3.26-1,6.55-1.72c2.21-.47,4.43-.89,6.66-1.24s4.47-.58,6.71-.77,4.49-.26,6.74-.3,4.5,0,6.74.17,4.47.38,6.7.67,4.43.7,6.62,1.14,4.36,1,6.52,1.6q-3.27-.73-6.57-1.29t-6.64-.82c-2.22-.18-4.45-.3-6.67-.35s-4.45,0-6.67.07-4.43.29-6.63.54-4.4.59-6.58,1-4.33.9-6.48,1.44-4.26,1.21-6.35,1.9l-.06-2.05a86.47,86.47,0,0,1,36,18l4.76,4-6.16-1a246.28,246.28,0,0,0-44-3.24l.66-4.25c8.77,2.76,17.6,5.53,26.27,9,4.33,1.71,8.61,3.6,12.8,5.72,2.07,1,4.24,2.23,6.18,3.37l.75.43a8.62,8.62,0,0,1,1,.74,9.09,9.09,0,0,1,1.68,1.82,6.13,6.13,0,0,1,1.11,2.85,4.08,4.08,0,0,1-.44,2.36,4.15,4.15,0,0,1-1.74,1.74l-1,.57-1.19-.41a116.52,116.52,0,0,0-47.86-6l1.27-5.6L735.54,342l16.23,9.33-18.39-3.54-55.62-10.69L680,331.4l46.89,30.05,13.8,8.84-16-3.38-44-9.26,2.48-4.66a180.33,180.33,0,0,0,18.32,15.81,170.6,170.6,0,0,0,20.36,13.13L732,387.44l-11.36-1.21A104.55,104.55,0,0,1,679.86,373l2.36-2.72a106.1,106.1,0,0,0,13.94,15.19c2.57,2.29,5.22,4.5,8,6.56s5.64,4,8.61,5.77l3.89,2.35h-4.5a63.62,63.62,0,0,1-32.5-8.85l1-.89A85.08,85.08,0,0,0,688.53,404,82.06,82.06,0,0,0,698.93,415.89Z"/><path class="cls-11" d="M406.32,207.48l-83.39,1.31c6-160,116.29-192.85,159.11-201.6s88.32-10.39,130.85,0c157.56,38.44,148.86,199.2,147.17,242.08C732,243.37,681,240.73,652.92,234.84c-57.19-12-114.75-24-173.41-26.93C455.14,206.71,430.72,207.09,406.32,207.48Z"/><path class="cls-9" d="M628.48,199.28c.8.15,130.81,49.82,131.58,50,1.64-41.66,9.88-194.58-134.15-238.5C739.29,53.41,822.85,267.25,628.48,199.28Z"/><path class="cls-21" d="M727.39,230.12c-39.17-18.82-80.91-30.85-121.49-46.06-24-8.11-52.91-6.82-72.48-23-53.29-44,52.9-139.35,98.82-142.95q6-.46,12-.89A222.54,222.54,0,0,0,612.89,7.18c-42.53-10.38-88-8.73-130.85,0S328.93,48.83,322.93,208.79l83.39-1.31c24.4-.39,48.82-.77,73.19.43,58.66,2.89,116.22,14.94,173.41,26.93,28.07,5.89,79.07,8.53,107.14,14.42,0-.84.07-1.73.11-2.66C749.31,241,738.42,235.42,727.39,230.12Z"/><path class="cls-18" d="M759.52,246.16C518.38,137.28,355.63,209.21,339,214.07a2,2,0,0,0-.45.19c-2.65,1.44-18,10.79-35.83,21.8a8.06,8.06,0,0,1-5.12,5.81c-4.59,6.25-8.75,12.79-13,19.3,75-16.56,252.59-37.12,365,32.07a18.92,18.92,0,0,0,18,.94L757,251.87C759,251,761.43,247,759.52,246.16Z"/><path class="cls-11" d="M338.6,198.83c-4.75,2.44-50.19,29.06-77.91,45.68a2.47,2.47,0,0,0-.73,3.56l0,0a2.5,2.5,0,0,0,2.67,1c54.24-14.42,261.47-43.22,387.26,37.78a19,19,0,0,0,18,1.45l89.36-39.71c1.93-.86,4.4-4.72,2.49-5.63-241.26-115.89-404.11-48.69-420.73-44.3A1.89,1.89,0,0,0,338.6,198.83Z"/><path class="cls-36" d="M660.22,281.8l97-37.59c-245.13-119.68-396.42-53.69-411.83-49.86-3.83,1.83-60.69,36.74-86.16,51.87a.41.41,0,0,0,.32.74C287.1,239,495.74,182.69,660.22,281.8Z"/><path class="cls-21" d="M447.56,224.06l68.11-49.85c-101-7.65-160.92,17.81-170.32,20.14-3.83,1.83-60.69,36.74-86.16,51.87a.41.41,0,0,0,.32.74C276.56,242,345.36,217.81,447.56,224.06Z"/><path class="cls-21" d="M564.85,180.26q-11.22-1.89-21.93-3.26c-16.77,16.77-48.14,31-64.91,47.77,7.33.83,20.89,3.06,28.32,4.25Z"/><path class="cls-22" d="M413.79,356.6c-.1-.11,11.13,14.18,19.13,46.19a337.83,337.83,0,0,1,10.36,43.3C442.11,418.75,434.33,378.31,413.79,356.6Z"/><path class="cls-22" d="M480.15,491c-12.1,2.15-46.39,5.27-56-6.35-1,2.53,14.82-20.61,17.76-27-4.23,5.86-20.24,24.07-23.32,27,14.48,18.68,40.73,21.38,61.22,7C479.29,492,479.38,491.52,480.15,491Z"/><path class="cls-10" d="M421.36,484.64A44.27,44.27,0,0,1,430,471.09c9.38-10.58,11.57-12.6,11.2-26.81-.77-29.09-13-69-30.45-91.35-1.09-1.39-32.22-17.87-20.54-6.37,18.32,18,42.49,67.27,43.2,101.26.23,11.32-17,31.11-21.46,41.82a.27.27,0,0,0,.12.43c2.66,2,9.83,18.29,41.16,11.56C453.72,501.53,417.94,492.88,421.36,484.64Z"/><path class="cls-10" d="M505,348.28c-.26.51-17.17,56.06-22.35,75.4,1.75-6.51,8.39-16.52,12.32-22.12,5.26-7.53,13.08-13.21,21.52-16.7,12.49-5.16,26.34-6,39.84-5.53a222.15,222.15,0,0,1,51.18,7.84c-11.9-8.89-26.69-13.27-41.48-14.74s-29.69-.19-44.47,1.26a3.43,3.43,0,0,1-2.35-.34c-1.66-1.22,0-3.77,1.66-5,12.05-9.23,22.75-19.25,36.71-25.73,11.27-5.23,31.77-12.9,44.35-9C554.48,318.94,505.87,347.8,505,348.28Z"/><path class="cls-30" d="M475.36,480.75c-1.21.48-19-21-26-17.71-13.81,6.38-14.22,14.24-21.14,19.72C449.33,492.07,468.63,485.54,475.36,480.75Z"/></g><path class="cls-5" d="M98.31,928.51l.24-.33a3.91,3.91,0,0,1,2.27-1.83c2.55-.46,5.79,5.51,5.42,7.95-3,19.56-24.22,32.77-23.55,52.42C76.61,985,67.81,982.63,59,974c-1.78-1.73-1.65-3.68-3.07-5.43s-3.65-2.51-4.76-4.82l-8.84-18.46c-4.51-9.43-6-15.57-2.83-25.33A232.11,232.11,0,0,0,50,867.31c.23-2.71.92-6,3.81-6.22s5.44,2.62,6.87,5.2c6,10.7,4,22.17,1.93,32.5-1.19,5.86-3.83,19.62-3.85,24.93,11-15.27,20.75-29.34,28-42.4.95-1.68,3.44-1.65,4.91,0,2.52,2.86,4.62,7,4.69,9.55.09,3.66-1.34,7-2.74,10.18,1.48-.9,4.23-2.25,7.3,1.15,3.67,9-2.13,18.49-5.77,26.71-2.19,5-4.31,7.84-6.51,12.82Z"/><path class="cls-6" d="M68.19,968.86c9.3-13.63,19.89-28.51,30.57-40.64C89.92,942.39,79.27,958,67.88,971.1l-.09-2.17"/><path class="cls-6" d="M81.58,919.4C73.81,930,54.92,955.68,52.55,957c6.45-10.72,27-41.69,42.69-60.15C92.06,905.11,86.81,912.27,81.58,919.4Z"/><path class="cls-6" d="M61.92,869.81c1.81,4.94,1.19,9.89.48,14.58-2.84,18.61-6.85,36.72-13.62,53.68,1.7-3.4,4.85-6,6.61-9.4,1.26-2.42,3.5-6.07,4-8.77,2.14-11.69,2.54-22.61,4.71-34.54C64.93,880.75,63.4,874.77,61.92,869.81Z"/><g id="Package"><path class="cls-37" d="M667.78,1102.1H415c0-20.22-.41-147.09,1.06-147.64,42.48-15.93,240.14-50.48,261.29-52,22.18-1.65,120,.25,146.13,4.22-13.33-1.46-113.08,45.36-154.63,54.19C667.53,1007.08,667.78,1058.58,667.78,1102.1Z"/><path class="cls-10" d="M418.54,954.84c15.11-2.06,29.48-6.91,44.28-10.4,15.54-3.67,31.54-5.41,47.32-7.81,32-4.86,63.88-9.74,95.55-16.3,29.25-6.06,58.43-12.66,87.74-18.44-6.92.09-12.51.26-16.09.53-21.15,1.56-218.81,36.11-261.29,52-.08,0-.15.42-.22,1.1A10.94,10.94,0,0,1,418.54,954.84Z"/><polygon class="cls-38" points="819.31 905.78 664.59 958.71 667.42 1104.22 819.31 1045.01 819.31 905.78"/><path class="cls-10" d="M699.59,968.66c11.93-8.18,25.74-12.54,39-18.06,15.2-6.33,30.82-11.7,46.47-16.81,11.37-3.72,22.8-7.24,34.27-10.64V905.78L664.59,958.71l3.19,145.16,25.49-9.76v-112a10.25,10.25,0,0,1,1.62-5.76A10.49,10.49,0,0,1,699.59,968.66Z"/><polygon class="cls-39" points="667.78 1104.22 414.99 1099.97 414.99 955.52 667.78 957.65 667.78 1104.22"/><path class="cls-10" d="M440.48,1090.41a9.63,9.63,0,0,1-9.39-6.1,10.05,10.05,0,0,1-2.3-6.64c0-33.64-1-67.27-1.06-100.9a10.54,10.54,0,0,1,1.25-5.15c0-4.16,225.72-12.22,240.21-13.27L415,955.52V1100l252.79,4.25v-17.7C592,1087.25,516.24,1090.36,440.48,1090.41Z"/></g><g id="Hand"><path class="cls-5" d="M776.59,859.51c-18.71,6.85-37.81,12.71-57.09,17.87a6.16,6.16,0,0,1,.68,1c2.36,4.42-2.4,121-9.21,129.58-5,6.24-26.2,12-37.06,38-4.6,11-11.85,20.71-17.77,31.06a4.5,4.5,0,0,0-.84,2.61c.28,2.68,17.43,11.5,36-25.82.87-1.75,2.2-3.79,4.14-3.64,2.31.18,3.05,3.18,3,5.49-.11,20.13-13.06,45.61-34.22,49.28,18.07-.42,37.36-4.55,55.27-2.17,13.57-43.86,77-211.13,62-237.75A32.4,32.4,0,0,0,776.59,859.51Z"/><path class="cls-9" d="M768.76,949.91l.6-2.42c2.3-9,6.76-17.84,7.82-27,1.18-10,4.43-19.85,5.69-30,.92-7.44,3.35-17.85-.91-24.27-5.87-8.82-18-17.86-26.73-23.72,4.31,4.61,19.76,22.83,24.07,27.44,2.59,2.77-.34,14.44-.71,17.63-1.29,11.27-3,22.5-4.74,33.7-4.22,26.74-12.32,53.18-20.93,78.8q-1.35,4-2.76,8.06c5.73-14.81,11.47-29.66,15.41-45C766.7,958.77,767.67,954.32,768.76,949.91Z"/><path class="cls-10" d="M722.66,937.73c1.58-20.19,3.78-41.12-1.85-60.71-.44.12-.87.25-1.31.36a6.16,6.16,0,0,1,.68,1c2.36,4.42-2.4,121-9.21,129.58-5,6.24-26.2,12-37.06,38-4.6,11-11.85,20.71-17.77,31.06a4.5,4.5,0,0,0-.84,2.61c.14,1.34,1.21,2,2.56,2.15,8.58-9.7,13.56-21.74,19.91-33.19a94.18,94.18,0,0,1,29.5-33,36.54,36.54,0,0,0,7.84-7.55C718.39,984.7,720.81,961.28,722.66,937.73Z"/><path class="cls-10" d="M680.08,1104.22a79.07,79.07,0,0,0,14.59-22.56,86.18,86.18,0,0,0,3.85-11.37,35.18,35.18,0,0,0,1.45-10.86,16.36,16.36,0,0,0-3.83-10.09c6.15,9.86-.5,26.77-5.48,35.94-4.28,7.91-15,15.94-23.24,19.65Z"/><path class="cls-10" d="M716.23,1102.42c1.1.08,2.19.19,3.28.34,4.61-14.91,15-44.08,26.08-77.13C739.39,1037.26,720.72,1088.81,716.23,1102.42Z"/></g><g id="Layer_2-2" data-name="Layer 2"><g id="Layer_1-2-2" data-name="Layer 1-2"><path class="cls-40" d="M406.67,835.11h0l-.4,22.53-4.36-.08.38-22a.51.51,0,0,0-.5-.52h0l-9.22-.16.23-.42a5.74,5.74,0,0,1,5.12-3l7.69.14a1.11,1.11,0,0,1,1.09,1.12Z"/><path class="cls-40" d="M402.21,832.65a1.11,1.11,0,0,1,1.13-1.08l9.52.16a3.49,3.49,0,0,1,3.4,3.54l-9.22-.16a.52.52,0,0,0-.52.5h0l-.38,22-4.37-.08.4-22.51h0Z"/><path class="cls-3" d="M400,836.55l-7-.12a1.75,1.75,0,0,0-1.65,1.1L388.73,844s0,.06-.08.08l-4.15,2.24a1.86,1.86,0,0,0-1,1.6l-.16,8.84a.48.48,0,0,0,.46.48h0l16.23.28a.12.12,0,0,0,.13-.12h0l.36-20.32A.55.55,0,0,0,400,836.55Z"/><path class="cls-12" d="M399.45,844.42l.12-6.38a.47.47,0,0,0-.42-.49l-5.77-.1a1.44,1.44,0,0,0-1.36,1s-2.2,5.89-2.23,5.89"/><rect class="cls-40" x="381.57" y="853.73" width="3.69" height="0.87" rx="0.12" transform="translate(-477.3 1222.63) rotate(-89)"/><rect class="cls-40" x="382.32" y="849.09" width="2.37" height="0.87" rx="0.12" transform="translate(-472.58 1218.15) rotate(-89)"/><rect class="cls-41" x="437.69" y="801.54" width="2.24" height="110.85" rx="0.31" transform="translate(-425.69 1280.77) rotate(-89)"/><text class="cls-42" transform="matrix(1, 0.02, -0.02, 1, 406.27, 857.69)">ransfer</text></g></g><g id="Layer_2-3" data-name="Layer 2"><g id="Layer_1-2-3" data-name="Layer 1-2"><path class="cls-40" d="M449.63,122.89h0q2.42,18,4.82,36c-2.82.37-4.23.58-7.05,1q-2.68-17.52-5.36-35a.88.88,0,0,0-1-.68h0c-6.51,1-9.76,1.59-16.24,2.86.1-.3.16-.45.26-.75a10.36,10.36,0,0,1,8.1-6.49c5.49-1,8.24-1.37,13.76-2.14a1.9,1.9,0,0,1,2.22,1.48C449.32,120.61,449.42,121.37,449.63,122.89Z"/><path class="cls-40" d="M441.1,120.25a1.9,1.9,0,0,1,1.71-2c6.82-1,10.24-1.46,17.08-2.19,3.44-.36,6.46,1.88,6.75,4.95-6.55.6-9.82,1-16.35,1.84a.86.86,0,0,0-.79.93h0q2.36,17.55,4.72,35.1c-2.82.38-4.22.58-7,1q-2.76-17.91-5.51-35.81h0C441.44,122.52,441.33,121.76,441.1,120.25Z"/><path class="cls-3" d="M438.32,127.11c-4.92.8-7.37,1.24-12.26,2.19a3.09,3.09,0,0,0-2.49,2.34c-.91,4.47-1.34,6.71-2.16,11.19a.21.21,0,0,1-.11.15c-2.46,2.05-3.68,3.09-6.09,5.18a3,3,0,0,0-1,2.91l3.27,13.84a.75.75,0,0,0,.9.56h0c10.35-2.42,15.56-3.45,26-5.14a.2.2,0,0,0,.17-.23h0l-5.19-32.28A.91.91,0,0,0,438.32,127.11Z"/><path class="cls-12" d="M439.65,139.73c-.67-4-1-6.07-1.67-10.12a.78.78,0,0,0-.87-.65c-4,.67-6,1-10.05,1.81a2.52,2.52,0,0,0-2,2s-1.69,10.06-1.73,10.08"/><path class="cls-40" d="M415.34,158l1-.24a.19.19,0,0,1,.24.14l1.27,5.42a.2.2,0,0,1-.15.23l-1,.24a.19.19,0,0,1-.23-.14c-.52-2.17-.78-3.25-1.29-5.42A.19.19,0,0,1,415.34,158Z"/><path class="cls-40" d="M413.86,151.8l1-.25a.21.21,0,0,1,.24.14c.31,1.34.47,2,.78,3.34a.2.2,0,0,1-.15.24l-1,.24a.2.2,0,0,1-.24-.14l-.8-3.34A.21.21,0,0,1,413.86,151.8Z"/><path class="cls-41" d="M417.29,161.82a405.88,405.88,0,0,1,179.62,1.11.51.51,0,0,1,.37.6c-.25,1-.38,1.52-.63,2.54a.5.5,0,0,1-.61.35,402.12,402.12,0,0,0-177.92-1.09.5.5,0,0,1-.6-.37c-.24-1-.36-1.52-.61-2.54A.51.51,0,0,1,417.29,161.82Z"/><g class="cls-2"><path class="cls-40" d="M470.25,134.1l-2.95.16a6.45,6.45,0,0,0-3.27,1.12,5.27,5.27,0,0,0-1.83,2.46c.85,7.92,1.28,11.88,2.13,19.8-2.59.28-3.89.43-6.47.75q-1.78-14.22-3.55-28.44c2.54-.31,3.81-.46,6.35-.74.37,1.64.55,2.45.91,4.09a9.19,9.19,0,0,1,2.65-3.74,7.31,7.31,0,0,1,4.14-1.64,6.72,6.72,0,0,1,1.18,0,9.87,9.87,0,0,1,1,.14C470.44,130.47,470.37,131.68,470.25,134.1Z"/><path class="cls-40" d="M490.31,155.75c-.25-.71-.47-1.41-.65-2.09a14.83,14.83,0,0,1-.4-2,11.81,11.81,0,0,1-3.38,3.53,9.33,9.33,0,0,1-4.8,1.64c-3,.19-5.36-.4-7.11-1.8a8.4,8.4,0,0,1-3-6.1,7.31,7.31,0,0,1,2.88-6.74c2.16-1.72,5.36-2.73,9.55-3,2.11-.11,3.16-.16,5.27-.25l-.1-2.51A4.46,4.46,0,0,0,487,133a5.77,5.77,0,0,0-4.12-1.07,5.92,5.92,0,0,0-3.69,1.28A3.24,3.24,0,0,0,478,136c-2.63.18-3.95.28-6.58.5l0-.16c-.32-2.24.58-4.33,2.76-6.25a14.26,14.26,0,0,1,8.91-3.21,13.66,13.66,0,0,1,8.86,2.17,8.61,8.61,0,0,1,3.49,7.22l.3,12.74a24.37,24.37,0,0,0,.32,3.39,18.42,18.42,0,0,0,.85,3.18C494.26,155.61,492.94,155.65,490.31,155.75Zm-8.23-4.21a8.59,8.59,0,0,0,4.42-1.46,6.29,6.29,0,0,0,2.53-2.89c-.07-1.7-.11-2.54-.17-4.24-2.14.09-3.2.14-5.34.26a6.76,6.76,0,0,0-4.49,1.66,4.14,4.14,0,0,0-1.42,3.38,3.32,3.32,0,0,0,1.28,2.52A4.63,4.63,0,0,0,482.08,151.54Z"/><path class="cls-40" d="M504.74,126.81l.4,4.14a10.28,10.28,0,0,1,3.83-3.41,10.66,10.66,0,0,1,5.24-1.15c3.24.08,5.75,1.08,7.47,3s2.48,4.75,2.3,8.58c-.35,7.19-.53,10.79-.87,18-2.6-.13-3.9-.18-6.5-.26.23-7.18.34-10.77.56-17.95q.11-3.22-1.28-4.64a6.1,6.1,0,0,0-4.33-1.46,7.53,7.53,0,0,0-3.62.79,7.18,7.18,0,0,0-2.61,2.28c0,8.32,0,12.48,0,20.8-2.6,0-3.89,0-6.49,0q-.24-14.33-.46-28.65C500.91,126.83,502.18,126.82,504.74,126.81Z"/><path class="cls-40" d="M543,149.58A3,3,0,0,0,542,147a13.16,13.16,0,0,0-4.76-2.15,22.47,22.47,0,0,1-7.88-3.67,6.45,6.45,0,0,1-2.47-5.6,7.48,7.48,0,0,1,3.63-5.94,13.44,13.44,0,0,1,8.87-1.89c3.79.32,6.71,1.48,8.74,3.43a7.35,7.35,0,0,1,2.44,6.71l-.07.15c-2.61-.3-3.92-.44-6.53-.69a3.91,3.91,0,0,0-1.14-3.18,5.76,5.76,0,0,0-3.85-1.62,5.9,5.9,0,0,0-3.88.74,3.15,3.15,0,0,0-1.49,2.45,2.83,2.83,0,0,0,1,2.48,14.43,14.43,0,0,0,4.8,2c3.71,1,6.41,2.4,8.07,4a6.43,6.43,0,0,1,2.08,5.79,7.55,7.55,0,0,1-3.95,5.87,14.33,14.33,0,0,1-8.7,1.58c-3.75-.31-6.63-1.46-8.7-3.5a8.14,8.14,0,0,1-2.76-6.74l.06-.16c2.47.14,3.71.21,6.18.38a4.28,4.28,0,0,0,1.59,3.76,7.67,7.67,0,0,0,4.12,1.47,7,7,0,0,0,4-.6A3,3,0,0,0,543,149.58Z"/><path class="cls-40" d="M552.69,158.51c1.21-9.48,1.81-14.22,3-23.7-1.86-.24-2.79-.35-4.66-.56l.55-4.74c1.88.22,2.83.33,4.71.57l.43-3.31c.4-3.13,1.64-5.44,3.78-6.88s4.94-1.91,8.39-1.38A14,14,0,0,1,571,119c.69.21,1.46.47,2.31.79-.62,1.92-.92,2.88-1.54,4.79q-.56-.19-1.26-.39a14.25,14.25,0,0,0-1.51-.32,4.61,4.61,0,0,0-3.62.66,4.67,4.67,0,0,0-1.63,3.21c-.19,1.32-.29,2-.48,3.31,2.51.36,3.76.55,6.27.95-.3,1.89-.46,2.83-.76,4.71-2.47-.4-3.71-.59-6.19-.95-1.37,9.46-2.06,14.19-3.43,23.65C556.56,159,555.27,158.84,552.69,158.51Z"/><path class="cls-40" d="M578,163.18a13.19,13.19,0,0,1-9-5.71,14.66,14.66,0,0,1-2-10.71l.17-1a14.35,14.35,0,0,1,5.46-9.61A12.49,12.49,0,0,1,583,133.84c4.13.81,7.07,2.63,8.75,5.4s2,6.07,1.16,9.91c-.34,1.47-.51,2.21-.84,3.69-7.31-1.67-11-2.42-18.35-3.73l-.07.12a8.86,8.86,0,0,0,1,5.85,6.67,6.67,0,0,0,4.74,3.11,15.3,15.3,0,0,0,4.6.29,15.81,15.81,0,0,0,4-1c.47,1.83.7,2.75,1.15,4.58a13.88,13.88,0,0,1-4.79,1.43A19.34,19.34,0,0,1,578,163.18Zm4-24.27a5.27,5.27,0,0,0-4.49,1.07,8.9,8.9,0,0,0-2.86,4.37l0,.14c4.74.85,7.1,1.31,11.82,2.3,0-.26.08-.39.13-.65a6.5,6.5,0,0,0-.54-4.66A5.58,5.58,0,0,0,582,138.91Z"/><path class="cls-40" d="M610.72,146.82l-2.84-.87a6.58,6.58,0,0,0-3.48-.09,5.31,5.31,0,0,0-2.57,1.67L597,166.86c-2.54-.64-3.81-1-6.35-1.54q3.24-14,6.49-27.92c2.5.59,3.75.89,6.24,1.51-.22,1.66-.33,2.49-.56,4.14a9.18,9.18,0,0,1,3.79-2.58,7.42,7.42,0,0,1,4.48-.11,6.68,6.68,0,0,1,1.12.4,8.67,8.67,0,0,1,.92.49C612.15,143.48,611.67,144.59,610.72,146.82Z"/></g></g></g></g></g></g></svg>