<svg xmlns="http://www.w3.org/2000/svg" viewBox="0 0 274.58 89.31"><defs><style>.cls-1,.cls-5{fill:#444040;}.cls-2,.cls-4{fill:#6110f5;}.cls-3{fill:#fff;}.cls-4{opacity:0.2;}.cls-5{font-size:79.28px;font-family:Roboto-Medium, Roboto;font-weight:500;letter-spacing:-0.07em;}</style></defs><title>Asset 2</title><g id="Layer_2" data-name="Layer 2"><g id="Layer_1-2" data-name="Layer 1"><path class="cls-1" d="M54.91,14.81h0v53H44.64V16a1.2,1.2,0,0,0-1.2-1.2H21.75l.53-1A13.46,13.46,0,0,1,34.2,6.62H52.29A2.61,2.61,0,0,1,54.9,9.21Z"/><path class="cls-1" d="M44.33,9.21a2.61,2.61,0,0,1,2.61-2.59H69.33a8.19,8.19,0,0,1,8.15,8.18H55.79a1.2,1.2,0,0,0-1.2,1.2V67.76H44.32V14.81h0Z"/><path class="cls-2" d="M39.31,18.48H22.83A4.1,4.1,0,0,0,19,21.12L13.1,36.5a.34.34,0,0,1-.19.18L3.25,42.13A4.36,4.36,0,0,0,1,45.94V66.73a1.09,1.09,0,0,0,1.09,1.1H40.28a.3.3,0,0,0,.3-.3V19.75A1.27,1.27,0,0,0,39.31,18.48Z"/><path class="cls-3" d="M38.33,37V22a1.1,1.1,0,0,0-1-1.14H23.76a3.39,3.39,0,0,0-3.15,2.37s-4.93,13.92-5,13.94"/><rect class="cls-1" y="56.22" width="2.04" height="8.69" rx="0.28"/><rect class="cls-1" y="46.86" width="2.04" height="5.57" rx="0.28"/><rect class="cls-4" x="1.02" y="62.27" width="260.72" height="5.26" rx="0.72"/><text class="cls-5" transform="translate(54.91 67.82)">ransfer</text></g></g></svg>